<?xml version="1.0" standalone="no"?>
<!DOCTYPE svg PUBLIC "-//W3C//DTD SVG 20010904//EN"
 "http://www.w3.org/TR/2001/REC-SVG-20010904/DTD/svg10.dtd">
<svg version="1.0" xmlns="http://www.w3.org/2000/svg"
 width="70.000000pt" height="70.000000pt" viewBox="0 0 70.000000 70.000000"
 preserveAspectRatio="xMidYMid meet">

<g transform="translate(0.000000,70.000000) scale(0.100000,-0.100000)"
fill="#000000" stroke="none">
<path d="M405 629 c-55 -28 -110 -90 -145 -165 -24 -49 -34 -61 -49 -57 -12 3
-28 -5 -45 -23 -31 -34 -73 -111 -64 -119 3 -3 23 -9 43 -12 42 -7 68 -26 126
-92 20 -22 73 -29 85 -10 4 7 22 9 49 5 51 -8 56 -3 83 84 11 36 24 65 28 65
13 0 16 -63 6 -110 -7 -33 -12 -40 -30 -38 -12 2 -22 -1 -22 -5 0 -12 49 -37
56 -29 11 11 24 82 24 134 0 41 -4 54 -18 62 -17 9 -18 15 -8 61 7 35 7 69 -1
115 -12 72 -48 155 -67 155 -6 0 -29 -9 -51 -21z m79 -66 c22 -63 20 -139 -5
-236 -11 -45 -23 -85 -25 -89 -3 -4 -15 -1 -27 6 -29 19 -141 56 -169 56 -34
0 -9 -16 46 -29 61 -15 125 -47 133 -67 9 -25 -2 -25 -48 0 -25 14 -73 32
-108 40 -35 8 -66 17 -69 21 -8 7 32 121 66 190 36 73 69 113 120 146 53 34
63 29 86 -38z m-264 -184 c0 -6 -7 -35 -16 -65 -15 -52 -16 -53 -47 -47 -18 3
-34 7 -35 9 -2 1 12 27 32 58 32 51 66 73 66 45z"/>
<path d="M380 505 c-6 -8 -10 -22 -8 -32 4 -25 48 -30 65 -8 26 37 -27 76 -57
40z"/>
<path d="M192 160 c-29 -31 -28 -50 3 -50 21 0 25 -5 25 -29 0 -40 16 -47 50
-23 l27 21 11 -25 c15 -33 38 -30 50 5 8 23 15 28 31 24 16 -4 21 -1 21 13 0
11 -5 26 -10 34 -8 12 -10 11 -10 -7 0 -16 -5 -20 -18 -16 -14 3 -21 -4 -29
-29 l-10 -33 -11 27 c-15 36 -26 41 -47 18 -25 -28 -33 -25 -31 13 1 28 -2 32
-23 29 -20 -2 -22 0 -11 13 22 26 5 40 -18 15z"/>
</g>
</svg>
