<?xml version="1.0" standalone="no"?>
<!DOCTYPE svg PUBLIC "-//W3C//DTD SVG 20010904//EN"
 "http://www.w3.org/TR/2001/REC-SVG-20010904/DTD/svg10.dtd">
<svg version="1.0" xmlns="http://www.w3.org/2000/svg"
 width="70.000000pt" height="70.000000pt" viewBox="0 0 70.000000 70.000000"
 preserveAspectRatio="xMidYMid meet">

<g transform="translate(0.000000,70.000000) scale(0.100000,-0.100000)"
fill="#000000" stroke="none">
<path d="M205 587 c-60 -29 -128 -99 -146 -153 -40 -119 24 -276 137 -336 41
-21 46 -22 72 -8 17 10 28 25 29 40 0 14 1 31 2 37 1 10 32 13 119 12 126 -1
172 12 215 59 53 59 36 167 -39 251 -67 74 -152 114 -257 118 -71 4 -89 1
-132 -20z m92 -73 c7 -18 -14 -61 -34 -68 -21 -8 -38 36 -24 63 14 25 49 28
58 5z m121 -7 c5 -23 -25 -57 -50 -57 -21 0 -26 48 -6 68 18 18 52 11 56 -11z
m105 -44 c9 -15 -12 -51 -33 -58 -32 -10 -46 8 -32 40 11 24 54 36 65 18z
m-345 -25 c-5 -34 -38 -37 -38 -4 0 20 5 26 21 26 15 0 20 -5 17 -22z m402
-63 c0 -16 -27 -32 -37 -22 -3 4 -3 13 0 22 8 20 37 20 37 0z m-319 -105 c28
-16 25 -58 -6 -72 -19 -8 -28 -8 -40 2 -20 17 -19 57 3 69 21 13 20 13 43 1z"/>
</g>
</svg>
