<svg width="327" height="316" viewBox="0 0 327 316" fill="none" xmlns="http://www.w3.org/2000/svg">
<path d="M113.334 315.04C84.7499 314.887 55.8335 299.541 42.8336 289.04C29.8336 278.54 23.8336 272.54 16.8336 262.04C9.83358 251.54 3.55149 239.956 1.33364 219.54C-0.884204 199.124 0.333623 131.04 0.333628 126.54C0.333633 122.04 1.83361 117.04 1.83361 117.04C4.33359 110.04 6.83361 109.201 10.3336 107.62C13.8336 106.04 31.3336 105.04 35.8336 108.54C40.3336 112.04 40.8336 113.04 42.3336 118.54L42.8336 126.54C42.8336 126.54 40.3335 184.04 44.3336 208.04C48.3336 232.04 53.2822 241.852 68.3336 254.54C83.385 267.229 95.4116 269.829 113.334 270.54C131.256 271.252 146.773 265.014 162.334 254.54C177.895 244.067 185.579 224.287 187.334 208.04C189.088 191.793 188.942 160.554 189.334 126.54C189.334 126.54 189.334 121.54 190.334 117.54C191.334 113.54 197.834 104.54 211.834 105.04C225.834 105.54 230.334 113.54 231.834 118.04C233.334 122.54 233.334 126.54 233.334 126.54C233.334 126.54 235.834 202.04 232.334 218.54C228.834 235.04 226.805 241.037 214.834 262.04C207.53 272.838 201.955 278.692 191.334 289.04C183.387 294.862 175.994 299.479 168.834 303.105C150.592 312.344 133.86 315.151 113.334 315.04Z" fill="#DC940F"/>
<path d="M213.531 0.00309753C242.115 0.156738 271.032 15.5029 284.031 26.0031C297.031 36.5032 303.031 42.5032 310.031 53.0033C317.031 63.5033 323.314 75.0872 325.531 95.5033C327.749 115.919 326.531 184.003 326.531 188.503C326.531 193.003 325.031 198.003 325.031 198.003C322.531 205.003 320.031 205.843 316.531 207.423C313.031 209.003 295.531 210.003 291.031 206.503C286.531 203.003 286.031 202.003 284.531 196.503L284.031 188.503C284.031 188.503 286.532 131.003 282.531 107.003C278.531 83.0035 273.583 73.1914 258.531 60.5031C243.48 47.8149 231.453 45.2147 213.531 44.5032C195.61 43.7916 180.092 50.0294 164.531 60.5031C148.97 70.9769 141.286 90.7562 139.531 107.003C137.777 123.25 137.923 154.489 137.531 188.503C137.531 188.503 137.531 193.503 136.531 197.503C135.531 201.503 129.031 210.503 115.031 210.003C101.031 209.503 96.5314 201.503 95.0314 197.003C93.5314 192.503 93.5314 188.503 93.5314 188.503C93.5314 188.503 91.0314 113.003 94.5314 96.5033C98.0314 80.003 100.06 74.0061 112.031 53.0033C119.335 42.2053 124.91 36.3518 135.531 26.0031C143.478 20.1819 150.871 15.5645 158.031 11.9381C176.273 2.69922 193.005 -0.107239 213.531 0.00309753Z" fill="#DC940F"/>
</svg>
